<?xml version="1.0" encoding="UTF-8"?>
<svg version="1.1" xmlns="http://www.w3.org/2000/svg" width="48" height="48">
<path d="M0 0 C7.546875 1.2578125 7.546875 1.2578125 11 4 C11 5.32 11 6.64 11 8 C9.85660156 8.47566406 8.71320312 8.95132812 7.53515625 9.44140625 C5.2332625 10.75768411 4.18971822 11.36056739 3.42529297 13.93701172 C3.30130311 16.29074383 3.32592459 18.58306973 3.4375 20.9375 C3.78022068 28.94940428 3.78022068 28.94940428 1.7734375 31.65161133 C-1.91975263 34.8837312 -5.17441329 35.7104648 -10 36 C-10 34.68 -10 33.36 -10 32 C-9.43410156 31.75765625 -8.86820313 31.5153125 -8.28515625 31.265625 C-7.55167969 30.93046875 -6.81820313 30.5953125 -6.0625 30.25 C-5.33160156 29.92515625 -4.60070312 29.6003125 -3.84765625 29.265625 C-1.52359666 27.97377317 -1.52359666 27.97377317 -1 24 C-8.92 24 -16.84 24 -25 24 C-23.60007548 28.78189449 -23.60007548 28.78189449 -21.375 30.1875 C-17.96145514 31.35529166 -14.51386025 32.18009928 -11 33 C-11 33.99 -11 34.98 -11 36 C-16.8048411 36.34829047 -20.9434572 36.25063466 -26 33 C-26.61875 32.608125 -27.2375 32.21625 -27.875 31.8125 C-29.84091986 28.64518468 -29.29043024 25.65942104 -29 22 C-27 20 -27 20 -24.29443359 19.77294922 C-23.17375488 19.78342285 -22.05307617 19.79389648 -20.8984375 19.8046875 C-19.08085937 19.81435547 -19.08085937 19.81435547 -17.2265625 19.82421875 C-15.95554687 19.84097656 -14.68453125 19.85773437 -13.375 19.875 C-12.09625 19.88402344 -10.8175 19.89304687 -9.5 19.90234375 C-6.33325421 19.92597618 -3.16660415 19.96184814 0 20 C0 13.4 0 6.8 0 0 Z M3 5 C4 7 4 7 4 7 Z " fill="#FF5C37" transform="translate(37,8)"/>
<path d="M0 0 C2.46800047 1.15173355 4.04783565 2.04783565 6 4 C6.83031408 8.93818375 6.71912477 12.84012134 4.0625 17.125 C-0.05386753 19.64522502 -3.29721953 19.46105691 -8 19 C-7.67 17.68 -7.34 16.36 -7 15 C-5.865625 14.690625 -4.73125 14.38125 -3.5625 14.0625 C-0.21224901 13.37075469 -0.21224901 13.37075469 1 12 C1.28743526 7.78428287 0.79760213 4.81990452 -1 1 C-0.67 0.67 -0.34 0.34 0 0 Z " fill="#FF5C37" transform="translate(28,5)"/>
<path d="M0 0 C0 0.99 0 1.98 0 3 C-0.969375 3.474375 -1.93875 3.94875 -2.9375 4.4375 C-5.80477437 5.70193947 -5.80477437 5.70193947 -7 7 C-7.15672777 10.52637472 -7.04028969 13.61905851 -6 17 C-7.32 17 -8.64 17 -10 17 C-12.47035712 14.52964288 -12.35042281 13.6039993 -12.4375 10.1875 C-12.34904355 6.36728703 -12.11383345 5.17247493 -9.9375 1.875 C-6.35870823 -0.40933517 -4.16952449 -0.40877691 0 0 Z " fill="#FF5C36" transform="translate(26,4)"/>
<path d="M0 0 C2.31 0 4.62 0 7 0 C7 0.99 7 1.98 7 3 C4.69 3 2.38 3 0 3 C0 2.01 0 1.02 0 0 Z " fill="#FF5835" transform="translate(26,33)"/>
</svg>
