<?xml version="1.0" encoding="UTF-8"?>
<svg version="1.1" xmlns="http://www.w3.org/2000/svg" width="48" height="48">
<path d="M0 0 C3.97025638 0.56717948 6.81299091 1.52737745 10 4 C10.58349609 6.71142578 10.58349609 6.71142578 10.5234375 9.9453125 C10.51183594 11.10417969 10.50023437 12.26304688 10.48828125 13.45703125 C10.45089844 14.66746094 10.41351563 15.87789062 10.375 17.125 C10.36082031 18.34316406 10.34664062 19.56132813 10.33203125 20.81640625 C10.18149447 29.81850553 10.18149447 29.81850553 9 31 C6.49075847 31.10087212 4.00963616 31.13972032 1.5 31.1328125 C0.74912109 31.13376923 -0.00175781 31.13472595 -0.77539062 31.13571167 C-2.36588627 31.13639338 -3.95638467 31.13453972 -5.546875 31.13037109 C-7.98964655 31.12502267 -10.43223421 31.13031634 -12.875 31.13671875 C-14.41666707 31.13605797 -15.95833403 31.1347768 -17.5 31.1328125 C-18.23541016 31.13483673 -18.97082031 31.13686096 -19.72851562 31.13894653 C-24.88504839 31.11495161 -24.88504839 31.11495161 -26 30 C-26.04080783 28.00041636 -26.04254356 25.99954746 -26 24 C-25.01 24 -24.02 24 -23 24 C-22.67 24.99 -22.34 25.98 -22 27 C-12.76 27 -3.52 27 6 27 C6 20.07 6 13.14 6 6 C4.02 5.34 2.04 4.68 0 4 C0 2.68 0 1.36 0 0 Z " fill="#FF5C37" transform="translate(32,13)"/>
<path d="M0 0 C0 1.32 0 2.64 0 4 C1.299375 3.2575 1.299375 3.2575 2.625 2.5 C6.18684468 0.91695792 8.16239709 0.4994431 12 1 C14.375 2.5 14.375 2.5 16 4 C15.67 4.99 15.34 5.98 15 7 C14.071875 6.731875 13.14375 6.46375 12.1875 6.1875 C7.30652524 5.42734819 3.61542831 7.71467284 -0.64453125 9.87109375 C-3 11 -3 11 -5 11 C-5.33 16.28 -5.66 21.56 -6 27 C-6.99 27 -7.98 27 -9 27 C-9.13481759 24.06097651 -9.23399416 21.12810441 -9.3125 18.1875 C-9.35439453 17.35412109 -9.39628906 16.52074219 -9.43945312 15.66210938 C-9.48611106 13.33854401 -9.48493084 11.27429694 -9 9 C-6.48046875 6.92578125 -6.48046875 6.92578125 -4 6 C-4.66 5.01 -5.32 4.02 -6 3 C-6 2.01 -6 1.02 -6 0 C-3.50907189 -1.24546405 -2.58919267 -0.7767578 0 0 Z " fill="#FF5C37" transform="translate(15,8)"/>
<path d="M0 0 C1.98 0 3.96 0 6 0 C6 1.98 6 3.96 6 6 C4.02 6 2.04 6 0 6 C0 4.02 0 2.04 0 0 Z " fill="#FF5C37" transform="translate(30,32)"/>
<path d="M0 0 C1.98 0 3.96 0 6 0 C6 1.98 6 3.96 6 6 C4.02 6 2.04 6 0 6 C0 4.02 0 2.04 0 0 Z " fill="#FF5C37" transform="translate(21,32)"/>
<path d="M0 0 C1.98 0 3.96 0 6 0 C6 1.98 6 3.96 6 6 C4.02 6 2.04 6 0 6 C0 4.02 0 2.04 0 0 Z " fill="#FF5C37" transform="translate(12,32)"/>
<path d="M0 0 C1.98 0 3.96 0 6 0 C6 1.98 6 3.96 6 6 C4.02 6 2.04 6 0 6 C0 4.02 0 2.04 0 0 Z " fill="#FF5C37" transform="translate(30,22)"/>
<path d="M0 0 C1.98 0 3.96 0 6 0 C6 1.98 6 3.96 6 6 C4.02 6 2.04 6 0 6 C0 4.02 0 2.04 0 0 Z " fill="#FF5C37" transform="translate(21,22)"/>
<path d="M0 0 C1.98 0 3.96 0 6 0 C6 1.98 6 3.96 6 6 C4.02 6 2.04 6 0 6 C0 4.02 0 2.04 0 0 Z " fill="#FF5C37" transform="translate(12,22)"/>
<path d="M0 0 C-0.33 1.65 -0.66 3.3 -1 5 C-2.32 5 -3.64 5 -5 5 C-5.33 3.35 -5.66 1.7 -6 0 C-3.50907189 -1.24546405 -2.58919267 -0.7767578 0 0 Z " fill="#FF5B38" transform="translate(40,8)"/>
<path d="M0 0 C-0.33 1.65 -0.66 3.3 -1 5 C-2.32 5 -3.64 5 -5 5 C-5.33 3.35 -5.66 1.7 -6 0 C-3.50907189 -1.24546405 -2.58919267 -0.7767578 0 0 Z " fill="#FF5B38" transform="translate(32,4)"/>
<path d="M0 0 C-0.33 1.65 -0.66 3.3 -1 5 C-2.32 5 -3.64 5 -5 5 C-5.33 3.35 -5.66 1.7 -6 0 C-3.50907189 -1.24546405 -2.58919267 -0.7767578 0 0 Z " fill="#FF5B38" transform="translate(22,4)"/>
</svg>
