<?xml version="1.0" encoding="UTF-8"?>
<svg version="1.1" xmlns="http://www.w3.org/2000/svg" width="30" height="30">
<path d="M0 0 C0.33 1.32 0.66 2.64 1 4 C2.32 4.33 3.64 4.66 5 5 C5.91457003 10.56157448 6.32086397 14.675665 4 20 C3.01 20 2.02 20 1 20 C0.67 21.32 0.34 22.64 0 24 C-5.56157448 24.91457003 -9.675665 25.32086397 -15 23 C-15 22.01 -15 21.02 -15 20 C-16.32 19.67 -17.64 19.34 -19 19 C-19.91457003 13.43842552 -20.32086397 9.324335 -18 4 C-17.01 4 -16.02 4 -15 4 C-14.67 2.68 -14.34 1.36 -14 0 C-9.20699867 -1.39151652 -4.84864218 -0.68662689 0 0 Z " fill="#FF5C37" transform="translate(22,3)"/>
</svg>
