<?xml version="1.0" encoding="UTF-8"?>
<svg version="1.1" xmlns="http://www.w3.org/2000/svg" width="50" height="50">
<path d="M0 0 C5.56340585 3.36669624 9.53349183 8.25193794 11.5 14.4375 C12.30594257 22.2813829 12.59671889 30.02934467 7.5 36.4375 C3.04867668 41.14197914 -1.19064516 44.09747071 -7.76953125 44.7734375 C-16.04371997 44.8646634 -22.08428015 44.61560264 -28.2421875 38.7890625 C-34.17397269 32.28964236 -34.96296445 26.57688134 -34.80859375 17.88671875 C-34.22339005 11.3457711 -31.85547257 7.43687235 -27.0625 3.0625 C-19.84507341 -2.93248543 -8.52200107 -3.84066973 0 0 Z M-27.875 9 C-32.43649379 14.47623185 -32.12226676 20.59256568 -31.5 27.4375 C-29.77883043 33.09869631 -25.25380196 37.15064853 -20.5 40.4375 C-15.15802154 42.21815949 -8.78990031 42.4377261 -3.3671875 40.7890625 C1.95660981 37.99585943 6.59881944 33.14104169 8.5 27.4375 C9.16572293 19.97267235 9.18405772 14.4427022 4.5 8.4375 C-0.49260998 3.44489002 -4.04328539 1.29876596 -11.25 1.125 C-18.88252795 1.21695817 -22.7522394 3.29730424 -27.875 9 Z " fill="#FF5C37" transform="translate(36.5,3.5625)"/>
<path d="M0 0 C4.62 0 9.24 0 14 0 C14.29296875 9.86328125 14.29296875 9.86328125 14 13 C13.50371094 13.48726562 13.00742187 13.97453125 12.49609375 14.4765625 C10.64302511 16.03707152 10.64302511 16.03707152 10.7421875 19.28515625 C10.78601562 20.53167969 10.82984375 21.77820313 10.875 23.0625 C11.0845481 29.83090379 11.0845481 29.83090379 10 32 C8.00045254 32.04254356 5.99958364 32.04080783 4 32 C3.67 31.67 3.34 31.34 3 31 C3.00753363 27.84341085 3.07851433 24.70023386 3.21484375 21.546875 C3.29478472 19.28161855 3.29478472 19.28161855 3 16 C2.02066532 14.97975317 1.02099031 13.97855955 0 13 C-0.40743792 8.63769798 -0.13040636 4.39034742 0 0 Z M3 2 C3 5.3 3 8.6 3 12 C5.32854463 13.19838209 5.32854463 13.19838209 8 14 C8.99 13.34 9.98 12.68 11 12 C11.36416047 9.56306689 11.36416047 9.56306689 11.1875 6.875 C11.14689453 5.50988281 11.14689453 5.50988281 11.10546875 4.1171875 C11.05326172 3.06917969 11.05326172 3.06917969 11 2 C10.67 2 10.34 2 10 2 C10 4.64 10 7.28 10 10 C9.34 10 8.68 10 8 10 C8 7.36 8 4.72 8 2 C7.34 2 6.68 2 6 2 C6 4.64 6 7.28 6 10 C5.34 10 4.68 10 4 10 C4 7.36 4 4.72 4 2 C3.67 2 3.34 2 3 2 Z M6 19 C6 22.3 6 25.6 6 29 C6.66 29 7.32 29 8 29 C8 25.7 8 22.4 8 19 C7.34 19 6.68 19 6 19 Z " fill="#FF5A35" transform="translate(13,10)"/>
<path d="M0 0 C4.77539062 0.78173828 4.77539062 0.78173828 6.796875 2.74609375 C8.21665831 5.4058826 8.34042235 7.064999 8.25 10.0625 C8.23453125 10.91972656 8.2190625 11.77695312 8.203125 12.66015625 C8 15 8 15 7 18 C6.77548542 20.22574335 6.59217122 22.45581519 6.4375 24.6875 C6.35371094 25.86699219 6.26992188 27.04648437 6.18359375 28.26171875 C6.12300781 29.16535156 6.06242187 30.06898437 6 31 C4.34385343 31.38218767 2.67542976 31.71395102 1 32 C0 31 0 31 -0.11352539 28.04077148 C-0.10828857 26.74727783 -0.10305176 25.45378418 -0.09765625 24.12109375 C-0.0962413 23.4344313 -0.09482635 22.74776886 -0.09336853 22.04029846 C-0.08775479 19.83932199 -0.07520007 17.63844591 -0.0625 15.4375 C-0.05748676 13.94856917 -0.05292355 12.45963676 -0.04882812 10.97070312 C-0.03778093 7.31376925 -0.02050713 3.65689442 0 0 Z M2 4 C2 10.93 2 17.86 2 25 C2.33 25 2.66 25 3 25 C3.06058594 24.37351562 3.12117188 23.74703125 3.18359375 23.1015625 C3.26738281 22.28429687 3.35117187 21.46703125 3.4375 20.625 C3.51871094 19.81289063 3.59992187 19.00078125 3.68359375 18.1640625 C4 16 4 16 5 14 C5.33338596 10.54187831 5.33338596 10.54187831 5 7 C4.01 6.01 3.02 5.02 2 4 Z " fill="#FF5B37" transform="translate(29,10)"/>
</svg>
